<svg width="12" height="17" viewBox="0 0 12 17" fill="none" xmlns="http://www.w3.org/2000/svg">
<path fill-rule="evenodd" clip-rule="evenodd" d="M11.8292 3.2673L9.10579 0.410936C9.05508 0.357613 8.9947 0.315471 8.92822 0.286986C8.86251 0.258835 8.79223 0.244275 8.72125 0.244141H1.64039C0.737933 0.244141 0.00634766 1.01144 0.00634766 1.95795V14.5259C0.00634766 15.4724 0.737933 16.2397 1.64039 16.2397H10.3553C11.2578 16.2397 11.9893 15.4724 11.9893 14.5259V3.67176C11.9886 3.52012 11.9311 3.37489 11.8292 3.2673ZM9.26591 2.19447L10.1298 3.10051H9.26591V2.19447ZM10.3553 15.0972C10.6561 15.0972 10.9 14.8414 10.9 14.5259H10.9V4.24304H8.72125C8.42042 4.24304 8.17656 3.98727 8.17656 3.67176V1.38667H1.64039C1.33956 1.38667 1.0957 1.64243 1.0957 1.95795V14.5259C1.0957 14.8414 1.33956 15.0972 1.64039 15.0972H10.3553Z" fill="black"/>
</svg>
