<svg width="20" height="21" viewBox="0 0 20 21" fill="none" xmlns="http://www.w3.org/2000/svg">
<path d="M14.8843 3.35899H11.9413C11.2081 3.36383 10.512 3.03769 10.0474 2.47165L9.0782 1.13176C8.62137 0.560754 7.9253 0.233085 7.19321 0.244426H5.11261C1.37819 0.244426 1.05022e-05 2.43615 1.05022e-05 6.16298V10.1915C-0.00463617 10.6345 19.9956 10.634 19.9969 10.1915V9.02021C20.0147 5.29339 18.6721 3.35899 14.8843 3.35899Z" fill="#1CD1A1"/>
<path fill-rule="evenodd" clip-rule="evenodd" d="M18.8321 4.78755C19.1521 5.16163 19.3993 5.59195 19.5612 6.05645C19.8798 7.01113 20.0273 8.01438 19.9969 9.02016V14.2732C19.9956 14.7157 19.963 15.1575 19.8991 15.5953C19.7775 16.3681 19.5057 17.1096 19.0989 17.7782C18.9119 18.1011 18.6849 18.3993 18.4231 18.6655C17.2383 19.7529 15.665 20.319 14.0574 20.2361H5.93061C4.32049 20.3184 2.74462 19.7526 1.55601 18.6655C1.2974 18.3988 1.07337 18.1007 0.889149 17.7782C0.484751 17.1101 0.21869 16.3678 0.1067 15.5953C0.0354894 15.1582 -0.000192693 14.7161 9.42692e-07 14.2732V9.02016C-0.000172448 8.58144 0.0235732 8.14304 0.0711337 7.7069C0.0811349 7.63038 0.096136 7.55511 0.110982 7.48061C0.135731 7.35642 0.160048 7.2344 0.160048 7.11238C0.250307 6.58606 0.414959 6.07518 0.649079 5.59503C1.34261 4.11318 2.76525 3.35894 5.09481 3.35894H14.8754C16.1802 3.25803 17.4753 3.65082 18.5032 4.45924C18.6215 4.55962 18.7316 4.66942 18.8321 4.78755ZM4.97033 13.7852H15.0355H15.0533C15.2741 13.7948 15.4896 13.7157 15.6517 13.5657C15.8137 13.4156 15.9088 13.2071 15.9157 12.9866C15.9282 12.7928 15.8644 12.6017 15.7379 12.4542C15.5924 12.2559 15.3618 12.1375 15.1155 12.1347H4.97033C4.51365 12.1347 4.14343 12.5042 4.14343 12.9599C4.14343 13.4157 4.51365 13.7852 4.97033 13.7852Z" fill="#1CD1A1"/>
</svg>
