<svg width="13" height="13" viewBox="0 0 13 13" fill="none" xmlns="http://www.w3.org/2000/svg">
<g clip-path="url(#clip0)">
<path d="M7.85913 2.8667H5.74976V5.17529H3.44116V7.28467H5.74976V9.59326H7.85913V7.28467H10.1677V5.17529H7.85913V2.8667ZM9.4646 5.87842V6.58154H7.15601V8.89014H6.45288V6.58154H4.14429V5.87842H6.45288V3.56982H7.15601V5.87842H9.4646Z" fill="#FCBC04"/>
<path d="M11.0471 1.98734C9.91385 0.854095 8.40707 0.22998 6.80444 0.22998C5.20181 0.22998 3.69504 0.854095 2.5618 1.98734C1.42856 3.12057 0.804443 4.62735 0.804443 6.22998C0.804443 7.83261 1.42856 9.33939 2.5618 10.4726C3.69504 11.6059 5.20181 12.23 6.80444 12.23C8.40707 12.23 9.91385 11.6059 11.0471 10.4726C12.1803 9.33939 12.8044 7.83261 12.8044 6.22998C12.8044 4.62735 12.1803 3.12057 11.0471 1.98734ZM6.80444 11.5269C3.88373 11.5269 1.50757 9.1507 1.50757 6.22998C1.50757 3.30927 3.88373 0.933105 6.80444 0.933105C9.72516 0.933105 12.1013 3.30927 12.1013 6.22998C12.1013 9.1507 9.72516 11.5269 6.80444 11.5269Z" fill="#FCBC04"/>
</g>
<defs>
<clipPath id="clip0">
<rect width="12" height="12" fill="white" transform="translate(0.804443 0.22998)"/>
</clipPath>
</defs>
</svg>
