<svg width="6" height="17" viewBox="0 0 6 17" fill="none" xmlns="http://www.w3.org/2000/svg">
<path d="M2.97557 4.22998C4.15156 4.22998 5.11373 3.32998 5.11373 2.22998C5.11373 1.12998 4.15156 0.22998 2.97557 0.22998C1.79958 0.22998 0.837402 1.12998 0.837402 2.22998C0.837402 3.32998 1.79958 4.22998 2.97557 4.22998ZM2.97557 6.22998C1.79958 6.22998 0.837402 7.12998 0.837402 8.22998C0.837402 9.32998 1.79958 10.23 2.97557 10.23C4.15156 10.23 5.11373 9.32998 5.11373 8.22998C5.11373 7.12998 4.15156 6.22998 2.97557 6.22998ZM2.97557 12.23C1.79958 12.23 0.837402 13.13 0.837402 14.23C0.837402 15.33 1.79958 16.23 2.97557 16.23C4.15156 16.23 5.11373 15.33 5.11373 14.23C5.11373 13.13 4.15156 12.23 2.97557 12.23Z" fill="#C5C7CD"/>
</svg>
