<svg width="13" height="13" viewBox="0 0 13 13" fill="none" xmlns="http://www.w3.org/2000/svg">
<g clip-path="url(#clip0)">
<path d="M11.2942 9.22998H9.79419C9.65619 9.22998 9.54419 9.11798 9.54419 8.97998C9.54419 8.84198 9.65619 8.72998 9.79419 8.72998H11.2942C11.7077 8.72998 12.0442 8.39348 12.0442 7.97998V4.47998C12.0442 4.06648 11.7077 3.72998 11.2942 3.72998H1.79419C1.38069 3.72998 1.04419 4.06648 1.04419 4.47998V7.97998C1.04419 8.39348 1.38069 8.72998 1.79419 8.72998H3.29419C3.43219 8.72998 3.54419 8.84198 3.54419 8.97998C3.54419 9.11798 3.43219 9.22998 3.29419 9.22998H1.79419C1.10469 9.22998 0.544189 8.66898 0.544189 7.97998V4.47998C0.544189 3.79098 1.10469 3.22998 1.79419 3.22998H11.2942C11.9837 3.22998 12.5442 3.79098 12.5442 4.47998V7.97998C12.5442 8.66898 11.9837 9.22998 11.2942 9.22998Z" fill="#1CD1A1"/>
<path d="M7.79419 10.73H4.79419C4.65619 10.73 4.54419 10.618 4.54419 10.48C4.54419 10.342 4.65619 10.23 4.79419 10.23H7.79419C7.93219 10.23 8.04419 10.342 8.04419 10.48C8.04419 10.618 7.93219 10.73 7.79419 10.73Z" fill="#1CD1A1"/>
<path d="M7.79419 9.72998H4.79419C4.65619 9.72998 4.54419 9.61798 4.54419 9.47998C4.54419 9.34198 4.65619 9.22998 4.79419 9.22998H7.79419C7.93219 9.22998 8.04419 9.34198 8.04419 9.47998C8.04419 9.61798 7.93219 9.72998 7.79419 9.72998Z" fill="#1CD1A1"/>
<path d="M5.79419 8.72998H4.79419C4.65619 8.72998 4.54419 8.61798 4.54419 8.47998C4.54419 8.34198 4.65619 8.22998 4.79419 8.22998H5.79419C5.93219 8.22998 6.04419 8.34198 6.04419 8.47998C6.04419 8.61798 5.93219 8.72998 5.79419 8.72998Z" fill="#1CD1A1"/>
<path d="M9.79419 3.72998C9.65619 3.72998 9.54419 3.61798 9.54419 3.47998V1.47998C9.54419 1.06648 9.20769 0.729981 8.79419 0.729981H4.29419C3.88069 0.729981 3.54419 1.06648 3.54419 1.47998V3.47998C3.54419 3.61798 3.43219 3.72998 3.29419 3.72998C3.15619 3.72998 3.04419 3.61798 3.04419 3.47998V1.47998C3.04419 0.790981 3.60469 0.22998 4.29419 0.22998H8.79419C9.48369 0.22998 10.0442 0.790981 10.0442 1.47998V3.47998C10.0442 3.61798 9.93219 3.72998 9.79419 3.72998Z" fill="#1CD1A1"/>
<path d="M8.79419 12.23H4.29419C3.60469 12.23 3.04419 11.669 3.04419 10.98V6.97998C3.04419 6.84198 3.15619 6.72998 3.29419 6.72998H9.79419C9.93219 6.72998 10.0442 6.84198 10.0442 6.97998V10.98C10.0442 11.669 9.48369 12.23 8.79419 12.23ZM3.54419 7.22998V10.98C3.54419 11.3935 3.88069 11.73 4.29419 11.73H8.79419C9.20769 11.73 9.54419 11.3935 9.54419 10.98V7.22998H3.54419Z" fill="#1CD1A1"/>
</g>
<defs>
<clipPath id="clip0">
<rect width="12" height="12" fill="white" transform="translate(0.544189 0.22998)"/>
</clipPath>
</defs>
</svg>
